# xmcd
# 
# Track frame offsets:
#     150
#     19165
#     41687
#     61077
#     79862
#     104607
#     124320
# 
# Disc length: 2007
# 
# Revision: 0
# Processed by: cddbd v1.5.2PL0 Copyright (c) Steve Scherf et al.
# Submitted via: BonkEnc v1.0.8
# 
DISCID=5907d507
DTITLE=B.B.King - Midnight Believer [with The Crusaders]
DYEAR=1978
DGENRE=Blues
TTITLE0=When It All Comes Down (I'll Still Be Around)
TTITLE1=Midnight Believer
TTITLE2=I Just Can't Leave Your Love Alone
TTITLE3=Hold On (I Feel Our Love Is Changing)
TTITLE4=Never Make A Move Too Soon
TTITLE5=A World Full Of Strangers
TTITLE6=Let Me Make You Cry A Little Longer
EXTD=
EXTT0=
EXTT1=
EXTT2=
EXTT3=
EXTT4=
EXTT5=
EXTT6=
PLAYORDER=
